<?xml version="1.0" encoding="UTF-8" standalone="no"?>
<!DOCTYPE svg PUBLIC "-//W3C//DTD SVG 1.1//EN"
 "http://www.w3.org/Graphics/SVG/1.1/DTD/svg11.dtd">
<!-- Generated by graphviz version 2.40.1 (0)
 -->
<!-- Title: %3 Pages: 1 -->
<svg width="533pt" height="247pt"
 viewBox="0.00 0.00 532.50 247.00" xmlns="http://www.w3.org/2000/svg" xmlns:xlink="http://www.w3.org/1999/xlink">
<g id="graph0" class="graph" transform="scale(1 1) rotate(0) translate(4 243)">
<title>%3</title>
<polygon fill="#ffffff" stroke="transparent" points="-4,4 -4,-243 528.5,-243 528.5,4 -4,4"/>
<!-- AnalyzeGenes -->
<g id="node1" class="node">
<title>AnalyzeGenes</title>
<g id="a_node1"><a xlink:href="../analyze_genes.html" xlink:title="AnalyzeGenes" target="_top">
<polygon fill="none" stroke="#ffffff" points="129.5,-129 36.5,-129 36.5,-110 129.5,-110 129.5,-129"/>
<text text-anchor="middle" x="83" y="-115.8" font-family="Sans-Serif" font-size="14.00" fill="#000000">AnalyzeGenes</text>
</a>
</g>
</g>
<!-- ComputeBlocks -->
<g id="node8" class="node">
<title>ComputeBlocks</title>
<g id="a_node8"><a xlink:href="../compute_blocks.html" xlink:title="ComputeBlocks" target="_top">
<polygon fill="none" stroke="#ffffff" points="210,-74 110,-74 110,-55 210,-55 210,-74"/>
<text text-anchor="middle" x="160" y="-60.8" font-family="Sans-Serif" font-size="14.00" fill="#000000">ComputeBlocks</text>
</a>
</g>
</g>
<!-- AnalyzeGenes&#45;&gt;ComputeBlocks -->
<g id="edge8" class="edge">
<title>AnalyzeGenes&#45;&gt;ComputeBlocks</title>
<path fill="none" stroke="#000000" d="M96.4124,-109.9197C107.935,-101.6893 124.768,-89.6657 138.2206,-80.0567"/>
<polygon fill="#000000" stroke="#000000" points="140.38,-82.8155 146.483,-74.155 136.3113,-77.1194 140.38,-82.8155"/>
</g>
<!-- AnalyzeBlocks -->
<g id="node14" class="node">
<title>AnalyzeBlocks</title>
<g id="a_node14"><a xlink:href="../analyze_blocks.html" xlink:title="AnalyzeBlocks" target="_top">
<polygon fill="none" stroke="#ffffff" points="92,-74 0,-74 0,-55 92,-55 92,-74"/>
<text text-anchor="middle" x="46" y="-60.8" font-family="Sans-Serif" font-size="14.00" fill="#000000">AnalyzeBlocks</text>
</a>
</g>
</g>
<!-- AnalyzeGenes&#45;&gt;AnalyzeBlocks -->
<g id="edge13" class="edge">
<title>AnalyzeGenes&#45;&gt;AnalyzeBlocks</title>
<path fill="none" stroke="#000000" d="M76.5551,-109.9197C71.5239,-102.4409 64.3857,-91.8301 58.2739,-82.745"/>
<polygon fill="#000000" stroke="#000000" points="61.106,-80.6844 52.6202,-74.3408 55.298,-84.5917 61.106,-80.6844"/>
</g>
<!-- AnalyzeMetacells -->
<g id="node2" class="node">
<title>AnalyzeMetacells</title>
<g id="a_node2"><a xlink:href="../analyze_metacells.html" xlink:title="AnalyzeMetacells" target="_top">
<polygon fill="none" stroke="#ffffff" points="293,-184 183,-184 183,-165 293,-165 293,-184"/>
<text text-anchor="middle" x="238" y="-170.8" font-family="Sans-Serif" font-size="14.00" fill="#000000">AnalyzeMetacells</text>
</a>
</g>
</g>
<!-- AnalyzeMetacells&#45;&gt;AnalyzeGenes -->
<g id="edge1" class="edge">
<title>AnalyzeMetacells&#45;&gt;AnalyzeGenes</title>
<path fill="none" stroke="#000000" d="M211.0011,-164.9197C185.6299,-155.9171 147.4693,-142.3762 119.4137,-132.421"/>
<polygon fill="#000000" stroke="#000000" points="120.5439,-129.1083 109.9491,-129.0626 118.203,-135.7053 120.5439,-129.1083"/>
</g>
<!-- AnalyzeModules -->
<g id="node10" class="node">
<title>AnalyzeModules</title>
<g id="a_node10"><a xlink:href="../analyze_modules.html" xlink:title="AnalyzeModules" target="_top">
<polygon fill="none" stroke="#ffffff" points="290,-129 186,-129 186,-110 290,-110 290,-129"/>
<text text-anchor="middle" x="238" y="-115.8" font-family="Sans-Serif" font-size="14.00" fill="#000000">AnalyzeModules</text>
</a>
</g>
</g>
<!-- AnalyzeMetacells&#45;&gt;AnalyzeModules -->
<g id="edge9" class="edge">
<title>AnalyzeMetacells&#45;&gt;AnalyzeModules</title>
<path fill="none" stroke="#000000" d="M238,-164.9197C238,-157.9083 238,-148.1442 238,-139.4652"/>
<polygon fill="#000000" stroke="#000000" points="241.5001,-139.3408 238,-129.3408 234.5001,-139.3409 241.5001,-139.3408"/>
</g>
<!-- Gmara -->
<g id="node3" class="node">
<title>Gmara</title>
<g id="a_node3"><a xlink:href="../gmara.html" xlink:title="Gmara" target="_top">
<polygon fill="none" stroke="#ffffff" points="69.5,-184 22.5,-184 22.5,-165 69.5,-165 69.5,-184"/>
<text text-anchor="middle" x="46" y="-170.8" font-family="Sans-Serif" font-size="14.00" fill="#000000">Gmara</text>
</a>
</g>
</g>
<!-- Gmara&#45;&gt;AnalyzeGenes -->
<g id="edge2" class="edge">
<title>Gmara&#45;&gt;AnalyzeGenes</title>
<path fill="none" stroke="#000000" d="M52.4449,-164.9197C57.4761,-157.4409 64.6143,-146.8301 70.7261,-137.745"/>
<polygon fill="#000000" stroke="#000000" points="73.702,-139.5917 76.3798,-129.3408 67.894,-135.6844 73.702,-139.5917"/>
</g>
<!-- Contracts -->
<g id="node4" class="node">
<title>Contracts</title>
<g id="a_node4"><a xlink:href="../contracts.html" xlink:title="Contracts" target="_top">
<polygon fill="none" stroke="#ffffff" points="316,-239 254,-239 254,-220 316,-220 316,-239"/>
<text text-anchor="middle" x="285" y="-225.8" font-family="Sans-Serif" font-size="14.00" fill="#000000">Contracts</text>
</a>
</g>
</g>
<!-- Contracts&#45;&gt;AnalyzeMetacells -->
<g id="edge3" class="edge">
<title>Contracts&#45;&gt;AnalyzeMetacells</title>
<path fill="none" stroke="#000000" d="M276.8132,-219.9197C270.2891,-212.2851 260.9759,-201.3867 253.1077,-192.1792"/>
<polygon fill="#000000" stroke="#000000" points="255.5668,-189.6694 246.4094,-184.3408 250.2452,-194.217 255.5668,-189.6694"/>
</g>
<!-- AnalyzeCells -->
<g id="node6" class="node">
<title>AnalyzeCells</title>
<g id="a_node6"><a xlink:href="../analyze_cells.html" xlink:title="AnalyzeCells" target="_top">
<polygon fill="none" stroke="#ffffff" points="524.5,-184 441.5,-184 441.5,-165 524.5,-165 524.5,-184"/>
<text text-anchor="middle" x="483" y="-170.8" font-family="Sans-Serif" font-size="14.00" fill="#000000">AnalyzeCells</text>
</a>
</g>
</g>
<!-- Contracts&#45;&gt;AnalyzeCells -->
<g id="edge5" class="edge">
<title>Contracts&#45;&gt;AnalyzeCells</title>
<path fill="none" stroke="#000000" d="M316.3737,-220.7851C349.3655,-211.6207 401.5509,-197.1248 438.7252,-186.7986"/>
<polygon fill="#000000" stroke="#000000" points="440.0854,-190.0533 448.7838,-184.0045 438.2118,-183.3087 440.0854,-190.0533"/>
</g>
<!-- ProjectCells -->
<g id="node7" class="node">
<title>ProjectCells</title>
<g id="a_node7"><a xlink:href="../project_cells.html" xlink:title="ProjectCells" target="_top">
<polygon fill="none" stroke="#ffffff" points="164.5,-184 87.5,-184 87.5,-165 164.5,-165 164.5,-184"/>
<text text-anchor="middle" x="126" y="-170.8" font-family="Sans-Serif" font-size="14.00" fill="#000000">ProjectCells</text>
</a>
</g>
</g>
<!-- Contracts&#45;&gt;ProjectCells -->
<g id="edge6" class="edge">
<title>Contracts&#45;&gt;ProjectCells</title>
<path fill="none" stroke="#000000" d="M257.3043,-219.9197C231.2785,-210.9171 192.133,-197.3762 163.3535,-187.421"/>
<polygon fill="#000000" stroke="#000000" points="164.2394,-184.024 153.6446,-184.0626 161.951,-190.6394 164.2394,-184.024"/>
</g>
<!-- ComputeModules -->
<g id="node11" class="node">
<title>ComputeModules</title>
<g id="a_node11"><a xlink:href="../compute_modules.html" xlink:title="ComputeModules" target="_top">
<polygon fill="none" stroke="#ffffff" points="423,-184 311,-184 311,-165 423,-165 423,-184"/>
<text text-anchor="middle" x="367" y="-170.8" font-family="Sans-Serif" font-size="14.00" fill="#000000">ComputeModules</text>
</a>
</g>
</g>
<!-- Contracts&#45;&gt;ComputeModules -->
<g id="edge10" class="edge">
<title>Contracts&#45;&gt;ComputeModules</title>
<path fill="none" stroke="#000000" d="M299.2833,-219.9197C311.6711,-211.6109 329.8222,-199.4363 344.2147,-189.7828"/>
<polygon fill="#000000" stroke="#000000" points="346.25,-192.6321 352.6052,-184.155 342.3507,-186.8187 346.25,-192.6321"/>
</g>
<!-- Defaults -->
<g id="node5" class="node">
<title>Defaults</title>
<g id="a_node5"><a xlink:href="../defaults.html" xlink:title="Defaults" target="_top">
<polygon fill="none" stroke="#ffffff" points="218,-239 164,-239 164,-220 218,-220 218,-239"/>
<text text-anchor="middle" x="191" y="-225.8" font-family="Sans-Serif" font-size="14.00" fill="#000000">Defaults</text>
</a>
</g>
</g>
<!-- Defaults&#45;&gt;AnalyzeMetacells -->
<g id="edge4" class="edge">
<title>Defaults&#45;&gt;AnalyzeMetacells</title>
<path fill="none" stroke="#000000" d="M199.1868,-219.9197C205.7109,-212.2851 215.0241,-201.3867 222.8923,-192.1792"/>
<polygon fill="#000000" stroke="#000000" points="225.7548,-194.217 229.5906,-184.3408 220.4332,-189.6694 225.7548,-194.217"/>
</g>
<!-- Defaults&#45;&gt;ProjectCells -->
<g id="edge7" class="edge">
<title>Defaults&#45;&gt;ProjectCells</title>
<path fill="none" stroke="#000000" d="M179.6779,-219.9197C170.2868,-211.9735 156.7173,-200.4916 145.5715,-191.0605"/>
<polygon fill="#000000" stroke="#000000" points="147.5248,-188.1284 137.6301,-184.3408 143.0031,-193.4721 147.5248,-188.1284"/>
</g>
<!-- AnnDataFormat -->
<g id="node9" class="node">
<title>AnnDataFormat</title>
<g id="a_node9"><a xlink:href="../anndata_format.html" xlink:title="AnnDataFormat" target="_top">
<polygon fill="none" stroke="#ffffff" points="435.5,-239 334.5,-239 334.5,-220 435.5,-220 435.5,-239"/>
<text text-anchor="middle" x="385" y="-225.8" font-family="Sans-Serif" font-size="14.00" fill="#000000">AnnDataFormat</text>
</a>
</g>
</g>
<!-- SharpenMetacells -->
<g id="node13" class="node">
<title>SharpenMetacells</title>
<g id="a_node13"><a xlink:href="../sharpen_metacells.html" xlink:title="SharpenMetacells" target="_top">
<polygon fill="none" stroke="#ffffff" points="198.5,-19 85.5,-19 85.5,0 198.5,0 198.5,-19"/>
<text text-anchor="middle" x="142" y="-5.8" font-family="Sans-Serif" font-size="14.00" fill="#000000">SharpenMetacells</text>
</a>
</g>
</g>
<!-- AnalyzeModules&#45;&gt;SharpenMetacells -->
<g id="edge12" class="edge">
<title>AnalyzeModules&#45;&gt;SharpenMetacells</title>
<path fill="none" stroke="#000000" d="M237.3396,-109.7508C235.967,-96.1724 231.7692,-71.3926 219,-55 208.3547,-41.334 192.3643,-30.9379 177.7092,-23.5572"/>
<polygon fill="#000000" stroke="#000000" points="178.8786,-20.239 168.3411,-19.1383 175.8923,-26.57 178.8786,-20.239"/>
</g>
<!-- Metacells -->
<g id="node12" class="node">
<title>Metacells</title>
<g id="a_node12"><a xlink:href="../Metacells.html" xlink:title="Metacells" target="_top">
<polygon fill="none" stroke="#ffffff" points="516,-239 454,-239 454,-220 516,-220 516,-239"/>
<text text-anchor="middle" x="485" y="-225.8" font-family="Sans-Serif" font-size="14.00" fill="#000000">Metacells</text>
</a>
</g>
</g>
<!-- AnalyzeBlocks&#45;&gt;SharpenMetacells -->
<g id="edge11" class="edge">
<title>AnalyzeBlocks&#45;&gt;SharpenMetacells</title>
<path fill="none" stroke="#000000" d="M62.7219,-54.9197C77.4983,-46.4541 99.279,-33.9755 116.2735,-24.2391"/>
<polygon fill="#000000" stroke="#000000" points="118.2106,-27.1631 125.1476,-19.155 114.7308,-21.0893 118.2106,-27.1631"/>
</g>
</g>
</svg>
