<?xml version="1.0" encoding="UTF-8" standalone="no"?>
<!DOCTYPE svg PUBLIC "-//W3C//DTD SVG 1.1//EN"
 "http://www.w3.org/Graphics/SVG/1.1/DTD/svg11.dtd">
<!-- Generated by graphviz version 2.40.1 (0)
 -->
<!-- Title: %3 Pages: 1 -->
<svg width="579pt" height="302pt"
 viewBox="0.00 0.00 579.00 302.00" xmlns="http://www.w3.org/2000/svg" xmlns:xlink="http://www.w3.org/1999/xlink">
<g id="graph0" class="graph" transform="scale(1 1) rotate(0) translate(4 298)">
<title>%3</title>
<polygon fill="#ffffff" stroke="transparent" points="-4,4 -4,-298 575,-298 575,4 -4,4"/>
<!-- AnalyzeGenes -->
<g id="node1" class="node">
<title>AnalyzeGenes</title>
<g id="a_node1"><a xlink:href="../analyze_genes.html" xlink:title="AnalyzeGenes" target="_top">
<polygon fill="none" stroke="#ffffff" points="167.5,-129 74.5,-129 74.5,-110 167.5,-110 167.5,-129"/>
<text text-anchor="middle" x="121" y="-115.8" font-family="Sans-Serif" font-size="14.00" fill="#000000">AnalyzeGenes</text>
</a>
</g>
</g>
<!-- ComputeBlocks -->
<g id="node8" class="node">
<title>ComputeBlocks</title>
<g id="a_node8"><a xlink:href="../compute_blocks.html" xlink:title="ComputeBlocks" target="_top">
<polygon fill="none" stroke="#ffffff" points="210,-74 110,-74 110,-55 210,-55 210,-74"/>
<text text-anchor="middle" x="160" y="-60.8" font-family="Sans-Serif" font-size="14.00" fill="#000000">ComputeBlocks</text>
</a>
</g>
</g>
<!-- AnalyzeGenes&#45;&gt;ComputeBlocks -->
<g id="edge8" class="edge">
<title>AnalyzeGenes&#45;&gt;ComputeBlocks</title>
<path fill="none" stroke="#000000" d="M127.7933,-109.9197C133.0965,-102.4409 140.6204,-91.8301 147.0627,-82.745"/>
<polygon fill="#000000" stroke="#000000" points="150.0927,-84.5227 153.022,-74.3408 144.3826,-80.4737 150.0927,-84.5227"/>
</g>
<!-- AnalyzeBlocks -->
<g id="node14" class="node">
<title>AnalyzeBlocks</title>
<g id="a_node14"><a xlink:href="../analyze_blocks.html" xlink:title="AnalyzeBlocks" target="_top">
<polygon fill="none" stroke="#ffffff" points="92,-74 0,-74 0,-55 92,-55 92,-74"/>
<text text-anchor="middle" x="46" y="-60.8" font-family="Sans-Serif" font-size="14.00" fill="#000000">AnalyzeBlocks</text>
</a>
</g>
</g>
<!-- AnalyzeGenes&#45;&gt;AnalyzeBlocks -->
<g id="edge13" class="edge">
<title>AnalyzeGenes&#45;&gt;AnalyzeBlocks</title>
<path fill="none" stroke="#000000" d="M107.936,-109.9197C96.8195,-101.7677 80.6287,-89.8944 67.589,-80.3319"/>
<polygon fill="#000000" stroke="#000000" points="69.2998,-77.2463 59.1659,-74.155 65.1602,-82.8911 69.2998,-77.2463"/>
</g>
<!-- AnalyzeMetacells -->
<g id="node2" class="node">
<title>AnalyzeMetacells</title>
<g id="a_node2"><a xlink:href="../analyze_metacells.html" xlink:title="AnalyzeMetacells" target="_top">
<polygon fill="none" stroke="#ffffff" points="283,-184 173,-184 173,-165 283,-165 283,-184"/>
<text text-anchor="middle" x="228" y="-170.8" font-family="Sans-Serif" font-size="14.00" fill="#000000">AnalyzeMetacells</text>
</a>
</g>
</g>
<!-- AnalyzeMetacells&#45;&gt;AnalyzeGenes -->
<g id="edge1" class="edge">
<title>AnalyzeMetacells&#45;&gt;AnalyzeGenes</title>
<path fill="none" stroke="#000000" d="M209.362,-164.9197C192.6638,-156.3365 167.9402,-143.6281 148.8882,-133.8351"/>
<polygon fill="#000000" stroke="#000000" points="150.2773,-130.6138 139.7834,-129.155 147.0772,-136.8395 150.2773,-130.6138"/>
</g>
<!-- AnalyzeModules -->
<g id="node10" class="node">
<title>AnalyzeModules</title>
<g id="a_node10"><a xlink:href="../analyze_modules.html" xlink:title="AnalyzeModules" target="_top">
<polygon fill="none" stroke="#ffffff" points="290,-129 186,-129 186,-110 290,-110 290,-129"/>
<text text-anchor="middle" x="238" y="-115.8" font-family="Sans-Serif" font-size="14.00" fill="#000000">AnalyzeModules</text>
</a>
</g>
</g>
<!-- AnalyzeMetacells&#45;&gt;AnalyzeModules -->
<g id="edge9" class="edge">
<title>AnalyzeMetacells&#45;&gt;AnalyzeModules</title>
<path fill="none" stroke="#000000" d="M229.7419,-164.9197C231.0167,-157.9083 232.792,-148.1442 234.37,-139.4652"/>
<polygon fill="#000000" stroke="#000000" points="237.8654,-139.8057 236.2108,-129.3408 230.9783,-138.5534 237.8654,-139.8057"/>
</g>
<!-- Gmara -->
<g id="node3" class="node">
<title>Gmara</title>
<g id="a_node3"><a xlink:href="../gmara.html" xlink:title="Gmara" target="_top">
<polygon fill="none" stroke="#ffffff" points="144.5,-184 97.5,-184 97.5,-165 144.5,-165 144.5,-184"/>
<text text-anchor="middle" x="121" y="-170.8" font-family="Sans-Serif" font-size="14.00" fill="#000000">Gmara</text>
</a>
</g>
</g>
<!-- Gmara&#45;&gt;AnalyzeGenes -->
<g id="edge2" class="edge">
<title>Gmara&#45;&gt;AnalyzeGenes</title>
<path fill="none" stroke="#000000" d="M121,-164.9197C121,-157.9083 121,-148.1442 121,-139.4652"/>
<polygon fill="#000000" stroke="#000000" points="124.5001,-139.3408 121,-129.3408 117.5001,-139.3409 124.5001,-139.3408"/>
</g>
<!-- AnalyzeCells -->
<g id="node4" class="node">
<title>AnalyzeCells</title>
<g id="a_node4"><a xlink:href="../analyze_cells.html" xlink:title="AnalyzeCells" target="_top">
<polygon fill="none" stroke="#ffffff" points="381.5,-239 298.5,-239 298.5,-220 381.5,-220 381.5,-239"/>
<text text-anchor="middle" x="340" y="-225.8" font-family="Sans-Serif" font-size="14.00" fill="#000000">AnalyzeCells</text>
</a>
</g>
</g>
<!-- AnalyzeCells&#45;&gt;AnalyzeMetacells -->
<g id="edge3" class="edge">
<title>AnalyzeCells&#45;&gt;AnalyzeMetacells</title>
<path fill="none" stroke="#000000" d="M320.4911,-219.9197C302.853,-211.2581 276.6603,-198.3957 256.6465,-188.5675"/>
<polygon fill="#000000" stroke="#000000" points="258.18,-185.4213 247.6611,-184.155 255.0945,-191.7046 258.18,-185.4213"/>
</g>
<!-- ProjectCells -->
<g id="node7" class="node">
<title>ProjectCells</title>
<g id="a_node7"><a xlink:href="../project_cells.html" xlink:title="ProjectCells" target="_top">
<polygon fill="none" stroke="#ffffff" points="378.5,-184 301.5,-184 301.5,-165 378.5,-165 378.5,-184"/>
<text text-anchor="middle" x="340" y="-170.8" font-family="Sans-Serif" font-size="14.00" fill="#000000">ProjectCells</text>
</a>
</g>
</g>
<!-- AnalyzeCells&#45;&gt;ProjectCells -->
<g id="edge6" class="edge">
<title>AnalyzeCells&#45;&gt;ProjectCells</title>
<path fill="none" stroke="#000000" d="M340,-219.9197C340,-212.9083 340,-203.1442 340,-194.4652"/>
<polygon fill="#000000" stroke="#000000" points="343.5001,-194.3408 340,-184.3408 336.5001,-194.3409 343.5001,-194.3408"/>
</g>
<!-- ComputeModules -->
<g id="node11" class="node">
<title>ComputeModules</title>
<g id="a_node11"><a xlink:href="../compute_modules.html" xlink:title="ComputeModules" target="_top">
<polygon fill="none" stroke="#ffffff" points="509,-184 397,-184 397,-165 509,-165 509,-184"/>
<text text-anchor="middle" x="453" y="-170.8" font-family="Sans-Serif" font-size="14.00" fill="#000000">ComputeModules</text>
</a>
</g>
</g>
<!-- AnalyzeCells&#45;&gt;ComputeModules -->
<g id="edge10" class="edge">
<title>AnalyzeCells&#45;&gt;ComputeModules</title>
<path fill="none" stroke="#000000" d="M359.6831,-219.9197C377.4787,-211.2581 403.9052,-198.3957 424.0977,-188.5675"/>
<polygon fill="#000000" stroke="#000000" points="425.7036,-191.6785 433.1633,-184.155 422.64,-185.3844 425.7036,-191.6785"/>
</g>
<!-- Defaults -->
<g id="node5" class="node">
<title>Defaults</title>
<g id="a_node5"><a xlink:href="../defaults.html" xlink:title="Defaults" target="_top">
<polygon fill="none" stroke="#ffffff" points="268,-239 214,-239 214,-220 268,-220 268,-239"/>
<text text-anchor="middle" x="241" y="-225.8" font-family="Sans-Serif" font-size="14.00" fill="#000000">Defaults</text>
</a>
</g>
</g>
<!-- Defaults&#45;&gt;AnalyzeMetacells -->
<g id="edge4" class="edge">
<title>Defaults&#45;&gt;AnalyzeMetacells</title>
<path fill="none" stroke="#000000" d="M238.7356,-219.9197C237.0599,-212.8304 234.7191,-202.9269 232.6508,-194.1763"/>
<polygon fill="#000000" stroke="#000000" points="236.0325,-193.2676 230.326,-184.3408 229.2202,-194.8778 236.0325,-193.2676"/>
</g>
<!-- Defaults&#45;&gt;ProjectCells -->
<g id="edge7" class="edge">
<title>Defaults&#45;&gt;ProjectCells</title>
<path fill="none" stroke="#000000" d="M258.2445,-219.9197C273.4826,-211.4541 295.944,-198.9755 313.4696,-189.2391"/>
<polygon fill="#000000" stroke="#000000" points="315.5791,-192.0711 322.621,-184.155 312.1796,-185.9519 315.5791,-192.0711"/>
</g>
<!-- Contracts -->
<g id="node6" class="node">
<title>Contracts</title>
<g id="a_node6"><a xlink:href="../contracts.html" xlink:title="Contracts" target="_top">
<polygon fill="none" stroke="#ffffff" points="371,-294 309,-294 309,-275 371,-275 371,-294"/>
<text text-anchor="middle" x="340" y="-280.8" font-family="Sans-Serif" font-size="14.00" fill="#000000">Contracts</text>
</a>
</g>
</g>
<!-- Contracts&#45;&gt;AnalyzeCells -->
<g id="edge5" class="edge">
<title>Contracts&#45;&gt;AnalyzeCells</title>
<path fill="none" stroke="#000000" d="M340,-274.9197C340,-267.9083 340,-258.1442 340,-249.4652"/>
<polygon fill="#000000" stroke="#000000" points="343.5001,-249.3408 340,-239.3408 336.5001,-249.3409 343.5001,-249.3408"/>
</g>
<!-- AnnDataFormat -->
<g id="node9" class="node">
<title>AnnDataFormat</title>
<g id="a_node9"><a xlink:href="../anndata_format.html" xlink:title="AnnDataFormat" target="_top">
<polygon fill="none" stroke="#ffffff" points="490.5,-294 389.5,-294 389.5,-275 490.5,-275 490.5,-294"/>
<text text-anchor="middle" x="440" y="-280.8" font-family="Sans-Serif" font-size="14.00" fill="#000000">AnnDataFormat</text>
</a>
</g>
</g>
<!-- SharpenMetacells -->
<g id="node13" class="node">
<title>SharpenMetacells</title>
<g id="a_node13"><a xlink:href="../sharpen_metacells.html" xlink:title="SharpenMetacells" target="_top">
<polygon fill="none" stroke="#ffffff" points="198.5,-19 85.5,-19 85.5,0 198.5,0 198.5,-19"/>
<text text-anchor="middle" x="142" y="-5.8" font-family="Sans-Serif" font-size="14.00" fill="#000000">SharpenMetacells</text>
</a>
</g>
</g>
<!-- AnalyzeModules&#45;&gt;SharpenMetacells -->
<g id="edge12" class="edge">
<title>AnalyzeModules&#45;&gt;SharpenMetacells</title>
<path fill="none" stroke="#000000" d="M237.3396,-109.7508C235.967,-96.1724 231.7692,-71.3926 219,-55 208.3547,-41.334 192.3643,-30.9379 177.7092,-23.5572"/>
<polygon fill="#000000" stroke="#000000" points="178.8786,-20.239 168.3411,-19.1383 175.8923,-26.57 178.8786,-20.239"/>
</g>
<!-- Metacells -->
<g id="node12" class="node">
<title>Metacells</title>
<g id="a_node12"><a xlink:href="../Metacells.html" xlink:title="Metacells" target="_top">
<polygon fill="none" stroke="#ffffff" points="571,-294 509,-294 509,-275 571,-275 571,-294"/>
<text text-anchor="middle" x="540" y="-280.8" font-family="Sans-Serif" font-size="14.00" fill="#000000">Metacells</text>
</a>
</g>
</g>
<!-- AnalyzeBlocks&#45;&gt;SharpenMetacells -->
<g id="edge11" class="edge">
<title>AnalyzeBlocks&#45;&gt;SharpenMetacells</title>
<path fill="none" stroke="#000000" d="M62.7219,-54.9197C77.4983,-46.4541 99.279,-33.9755 116.2735,-24.2391"/>
<polygon fill="#000000" stroke="#000000" points="118.2106,-27.1631 125.1476,-19.155 114.7308,-21.0893 118.2106,-27.1631"/>
</g>
</g>
</svg>
