<?xml version="1.0" encoding="UTF-8" standalone="no"?>
<!DOCTYPE svg PUBLIC "-//W3C//DTD SVG 1.1//EN"
 "http://www.w3.org/Graphics/SVG/1.1/DTD/svg11.dtd">
<!-- Generated by graphviz version 2.40.1 (0)
 -->
<!-- Title: %3 Pages: 1 -->
<svg width="736pt" height="192pt"
 viewBox="0.00 0.00 735.50 192.00" xmlns="http://www.w3.org/2000/svg" xmlns:xlink="http://www.w3.org/1999/xlink">
<g id="graph0" class="graph" transform="scale(1 1) rotate(0) translate(4 188)">
<title>%3</title>
<polygon fill="#ffffff" stroke="transparent" points="-4,4 -4,-188 731.5,-188 731.5,4 -4,4"/>
<!-- AnalyzeGenes -->
<g id="node1" class="node">
<title>AnalyzeGenes</title>
<g id="a_node1"><a xlink:href="../analyze_genes.html" xlink:title="AnalyzeGenes" target="_top">
<polygon fill="none" stroke="#ffffff" points="153.5,-74 60.5,-74 60.5,-55 153.5,-55 153.5,-74"/>
<text text-anchor="middle" x="107" y="-60.8" font-family="Sans-Serif" font-size="14.00" fill="#000000">AnalyzeGenes</text>
</a>
</g>
</g>
<!-- ComputeBlocks -->
<g id="node8" class="node">
<title>ComputeBlocks</title>
<g id="a_node8"><a xlink:href="../compute_blocks.html" xlink:title="ComputeBlocks" target="_top">
<polygon fill="none" stroke="#ffffff" points="100,-19 0,-19 0,0 100,0 100,-19"/>
<text text-anchor="middle" x="50" y="-5.8" font-family="Sans-Serif" font-size="14.00" fill="#000000">ComputeBlocks</text>
</a>
</g>
</g>
<!-- AnalyzeGenes&#45;&gt;ComputeBlocks -->
<g id="edge8" class="edge">
<title>AnalyzeGenes&#45;&gt;ComputeBlocks</title>
<path fill="none" stroke="#000000" d="M97.0714,-54.9197C88.9169,-47.0514 77.1697,-35.7164 67.4508,-26.3385"/>
<polygon fill="#000000" stroke="#000000" points="69.8252,-23.7659 60.1987,-19.3408 64.9646,-28.8032 69.8252,-23.7659"/>
</g>
<!-- AnalyzeBlocks -->
<g id="node14" class="node">
<title>AnalyzeBlocks</title>
<g id="a_node14"><a xlink:href="../analyze_blocks.html" xlink:title="AnalyzeBlocks" target="_top">
<polygon fill="none" stroke="#ffffff" points="210,-19 118,-19 118,0 210,0 210,-19"/>
<text text-anchor="middle" x="164" y="-5.8" font-family="Sans-Serif" font-size="14.00" fill="#000000">AnalyzeBlocks</text>
</a>
</g>
</g>
<!-- AnalyzeGenes&#45;&gt;AnalyzeBlocks -->
<g id="edge12" class="edge">
<title>AnalyzeGenes&#45;&gt;AnalyzeBlocks</title>
<path fill="none" stroke="#000000" d="M116.9286,-54.9197C125.0831,-47.0514 136.8303,-35.7164 146.5492,-26.3385"/>
<polygon fill="#000000" stroke="#000000" points="149.0354,-28.8032 153.8013,-19.3408 144.1748,-23.7659 149.0354,-28.8032"/>
</g>
<!-- Gmara -->
<g id="node2" class="node">
<title>Gmara</title>
<g id="a_node2"><a xlink:href="../gmara.html" xlink:title="Gmara" target="_top">
<polygon fill="none" stroke="#ffffff" points="130.5,-129 83.5,-129 83.5,-110 130.5,-110 130.5,-129"/>
<text text-anchor="middle" x="107" y="-115.8" font-family="Sans-Serif" font-size="14.00" fill="#000000">Gmara</text>
</a>
</g>
</g>
<!-- Gmara&#45;&gt;AnalyzeGenes -->
<g id="edge1" class="edge">
<title>Gmara&#45;&gt;AnalyzeGenes</title>
<path fill="none" stroke="#000000" d="M107,-109.9197C107,-102.9083 107,-93.1442 107,-84.4652"/>
<polygon fill="#000000" stroke="#000000" points="110.5001,-84.3408 107,-74.3408 103.5001,-84.3409 110.5001,-84.3408"/>
</g>
<!-- AnalyzeMetacells -->
<g id="node3" class="node">
<title>AnalyzeMetacells</title>
<g id="a_node3"><a xlink:href="../analyze_metacells.html" xlink:title="AnalyzeMetacells" target="_top">
<polygon fill="none" stroke="#ffffff" points="269,-129 159,-129 159,-110 269,-110 269,-129"/>
<text text-anchor="middle" x="214" y="-115.8" font-family="Sans-Serif" font-size="14.00" fill="#000000">AnalyzeMetacells</text>
</a>
</g>
</g>
<!-- AnalyzeMetacells&#45;&gt;AnalyzeGenes -->
<g id="edge2" class="edge">
<title>AnalyzeMetacells&#45;&gt;AnalyzeGenes</title>
<path fill="none" stroke="#000000" d="M195.362,-109.9197C178.6638,-101.3365 153.9402,-88.6281 134.8882,-78.8351"/>
<polygon fill="#000000" stroke="#000000" points="136.2773,-75.6138 125.7834,-74.155 133.0772,-81.8395 136.2773,-75.6138"/>
</g>
<!-- AnalyzeModules -->
<g id="node10" class="node">
<title>AnalyzeModules</title>
<g id="a_node10"><a xlink:href="../analyze_modules.html" xlink:title="AnalyzeModules" target="_top">
<polygon fill="none" stroke="#ffffff" points="276,-74 172,-74 172,-55 276,-55 276,-74"/>
<text text-anchor="middle" x="224" y="-60.8" font-family="Sans-Serif" font-size="14.00" fill="#000000">AnalyzeModules</text>
</a>
</g>
</g>
<!-- AnalyzeMetacells&#45;&gt;AnalyzeModules -->
<g id="edge9" class="edge">
<title>AnalyzeMetacells&#45;&gt;AnalyzeModules</title>
<path fill="none" stroke="#000000" d="M215.7419,-109.9197C217.0167,-102.9083 218.792,-93.1442 220.37,-84.4652"/>
<polygon fill="#000000" stroke="#000000" points="223.8654,-84.8057 222.2108,-74.3408 216.9783,-83.5534 223.8654,-84.8057"/>
</g>
<!-- Defaults -->
<g id="node4" class="node">
<title>Defaults</title>
<g id="a_node4"><a xlink:href="../defaults.html" xlink:title="Defaults" target="_top">
<polygon fill="none" stroke="#ffffff" points="297,-184 243,-184 243,-165 297,-165 297,-184"/>
<text text-anchor="middle" x="270" y="-170.8" font-family="Sans-Serif" font-size="14.00" fill="#000000">Defaults</text>
</a>
</g>
</g>
<!-- Defaults&#45;&gt;AnalyzeMetacells -->
<g id="edge3" class="edge">
<title>Defaults&#45;&gt;AnalyzeMetacells</title>
<path fill="none" stroke="#000000" d="M260.2455,-164.9197C252.3135,-157.1293 240.9212,-145.9405 231.4288,-136.6176"/>
<polygon fill="#000000" stroke="#000000" points="233.6068,-133.8509 224.0198,-129.3408 228.7018,-138.845 233.6068,-133.8509"/>
</g>
<!-- ProjectCells -->
<g id="node7" class="node">
<title>ProjectCells</title>
<g id="a_node7"><a xlink:href="../project_cells.html" xlink:title="ProjectCells" target="_top">
<polygon fill="none" stroke="#ffffff" points="364.5,-129 287.5,-129 287.5,-110 364.5,-110 364.5,-129"/>
<text text-anchor="middle" x="326" y="-115.8" font-family="Sans-Serif" font-size="14.00" fill="#000000">ProjectCells</text>
</a>
</g>
</g>
<!-- Defaults&#45;&gt;ProjectCells -->
<g id="edge6" class="edge">
<title>Defaults&#45;&gt;ProjectCells</title>
<path fill="none" stroke="#000000" d="M279.7545,-164.9197C287.6865,-157.1293 299.0788,-145.9405 308.5712,-136.6176"/>
<polygon fill="#000000" stroke="#000000" points="311.2982,-138.845 315.9802,-129.3408 306.3932,-133.8509 311.2982,-138.845"/>
</g>
<!-- Contracts -->
<g id="node5" class="node">
<title>Contracts</title>
<g id="a_node5"><a xlink:href="../contracts.html" xlink:title="Contracts" target="_top">
<polygon fill="none" stroke="#ffffff" points="455,-184 393,-184 393,-165 455,-165 455,-184"/>
<text text-anchor="middle" x="424" y="-170.8" font-family="Sans-Serif" font-size="14.00" fill="#000000">Contracts</text>
</a>
</g>
</g>
<!-- Contracts&#45;&gt;AnalyzeMetacells -->
<g id="edge4" class="edge">
<title>Contracts&#45;&gt;AnalyzeMetacells</title>
<path fill="none" stroke="#000000" d="M392.5609,-166.2659C357.5413,-157.0941 300.5828,-142.1765 260.4285,-131.6599"/>
<polygon fill="#000000" stroke="#000000" points="261.166,-128.235 250.6055,-129.0871 259.3924,-135.0066 261.166,-128.235"/>
</g>
<!-- AnalyzeCells -->
<g id="node6" class="node">
<title>AnalyzeCells</title>
<g id="a_node6"><a xlink:href="../analyze_cells.html" xlink:title="AnalyzeCells" target="_top">
<polygon fill="none" stroke="#ffffff" points="465.5,-129 382.5,-129 382.5,-110 465.5,-110 465.5,-129"/>
<text text-anchor="middle" x="424" y="-115.8" font-family="Sans-Serif" font-size="14.00" fill="#000000">AnalyzeCells</text>
</a>
</g>
</g>
<!-- Contracts&#45;&gt;AnalyzeCells -->
<g id="edge5" class="edge">
<title>Contracts&#45;&gt;AnalyzeCells</title>
<path fill="none" stroke="#000000" d="M424,-164.9197C424,-157.9083 424,-148.1442 424,-139.4652"/>
<polygon fill="#000000" stroke="#000000" points="427.5001,-139.3408 424,-129.3408 420.5001,-139.3409 427.5001,-139.3408"/>
</g>
<!-- Contracts&#45;&gt;ProjectCells -->
<g id="edge7" class="edge">
<title>Contracts&#45;&gt;ProjectCells</title>
<path fill="none" stroke="#000000" d="M406.9297,-164.9197C391.8455,-156.4541 369.611,-143.9755 352.2625,-134.2391"/>
<polygon fill="#000000" stroke="#000000" points="353.637,-130.9971 343.2035,-129.155 350.211,-137.1014 353.637,-130.9971"/>
</g>
<!-- ComputeModules -->
<g id="node11" class="node">
<title>ComputeModules</title>
<g id="a_node11"><a xlink:href="../compute_modules.html" xlink:title="ComputeModules" target="_top">
<polygon fill="none" stroke="#ffffff" points="596,-129 484,-129 484,-110 596,-110 596,-129"/>
<text text-anchor="middle" x="540" y="-115.8" font-family="Sans-Serif" font-size="14.00" fill="#000000">ComputeModules</text>
</a>
</g>
</g>
<!-- Contracts&#45;&gt;ComputeModules -->
<g id="edge10" class="edge">
<title>Contracts&#45;&gt;ComputeModules</title>
<path fill="none" stroke="#000000" d="M444.2057,-164.9197C462.4737,-156.2581 489.6018,-143.3957 510.3304,-133.5675"/>
<polygon fill="#000000" stroke="#000000" points="512.1004,-136.6018 519.6367,-129.155 509.1014,-130.2768 512.1004,-136.6018"/>
</g>
<!-- SharpenMetacells -->
<g id="node13" class="node">
<title>SharpenMetacells</title>
<g id="a_node13"><a xlink:href="../sharpen_metacells.html" xlink:title="SharpenMetacells" target="_top">
<polygon fill="none" stroke="#ffffff" points="727.5,-129 614.5,-129 614.5,-110 727.5,-110 727.5,-129"/>
<text text-anchor="middle" x="671" y="-115.8" font-family="Sans-Serif" font-size="14.00" fill="#000000">SharpenMetacells</text>
</a>
</g>
</g>
<!-- Contracts&#45;&gt;SharpenMetacells -->
<g id="edge11" class="edge">
<title>Contracts&#45;&gt;SharpenMetacells</title>
<path fill="none" stroke="#000000" d="M455.3316,-167.2053C458.5954,-166.4558 461.8644,-165.7095 465,-165 516.6476,-153.313 575.6629,-140.3142 617.2507,-131.213"/>
<polygon fill="#000000" stroke="#000000" points="618.147,-134.5998 627.1684,-129.0442 616.6515,-127.7614 618.147,-134.5998"/>
</g>
<!-- AnnDataFormat -->
<g id="node9" class="node">
<title>AnnDataFormat</title>
<g id="a_node9"><a xlink:href="../anndata_format.html" xlink:title="AnnDataFormat" target="_top">
<polygon fill="none" stroke="#ffffff" points="574.5,-184 473.5,-184 473.5,-165 574.5,-165 574.5,-184"/>
<text text-anchor="middle" x="524" y="-170.8" font-family="Sans-Serif" font-size="14.00" fill="#000000">AnnDataFormat</text>
</a>
</g>
</g>
<!-- Metacells -->
<g id="node12" class="node">
<title>Metacells</title>
<g id="a_node12"><a xlink:href="../Metacells.html" xlink:title="Metacells" target="_top">
<polygon fill="none" stroke="#ffffff" points="655,-184 593,-184 593,-165 655,-165 655,-184"/>
<text text-anchor="middle" x="624" y="-170.8" font-family="Sans-Serif" font-size="14.00" fill="#000000">Metacells</text>
</a>
</g>
</g>
</g>
</svg>
