<?xml version="1.0" encoding="UTF-8" standalone="no"?>
<!DOCTYPE svg PUBLIC "-//W3C//DTD SVG 1.1//EN"
 "http://www.w3.org/Graphics/SVG/1.1/DTD/svg11.dtd">
<!-- Generated by graphviz version 13.0.1 (20250615.1724)
 -->
<!-- Pages: 1 -->
<svg width="636pt" height="193pt"
 viewBox="0.00 0.00 636.00 193.00" xmlns="http://www.w3.org/2000/svg" xmlns:xlink="http://www.w3.org/1999/xlink">
<g id="graph0" class="graph" transform="scale(1 1) rotate(0) translate(4 189.28)">
<polygon fill="white" stroke="none" points="-4,4 -4,-189.28 632.32,-189.28 632.32,4 -4,4"/>
<!-- Gmara -->
<g id="node1" class="node">
<title>Gmara</title>
<g id="a_node1"><a xlink:href="../gmara.html" xlink:title="Gmara" target="_top">
<polygon fill="none" stroke="white" points="130.32,-129.96 83.25,-129.96 83.25,-110.64 130.32,-110.64 130.32,-129.96"/>
<text xml:space="preserve" text-anchor="middle" x="106.78" y="-114.5" font-family="Sans-Serif" font-size="14.00">Gmara</text>
</a>
</g>
</g>
<!-- AnalyzeGenes -->
<g id="node8" class="node">
<title>AnalyzeGenes</title>
<g id="a_node8"><a xlink:href="../analyze_genes.html" xlink:title="AnalyzeGenes" target="_top">
<polygon fill="none" stroke="white" points="153.19,-74.64 60.38,-74.64 60.38,-55.32 153.19,-55.32 153.19,-74.64"/>
<text xml:space="preserve" text-anchor="middle" x="106.78" y="-59.18" font-family="Sans-Serif" font-size="14.00">AnalyzeGenes</text>
</a>
</g>
</g>
<!-- Gmara&#45;&gt;AnalyzeGenes -->
<g id="edge6" class="edge">
<title>Gmara&#45;&gt;AnalyzeGenes</title>
<path fill="none" stroke="black" d="M106.78,-110.5C106.78,-103.9 106.78,-94.6 106.78,-86.21"/>
<polygon fill="black" stroke="black" points="110.29,-86.49 106.79,-76.49 103.29,-86.49 110.29,-86.49"/>
</g>
<!-- AnalyzeCells -->
<g id="node2" class="node">
<title>AnalyzeCells</title>
<g id="a_node2"><a xlink:href="../analyze_cells.html" xlink:title="AnalyzeCells" target="_top">
<polygon fill="none" stroke="white" points="367.94,-129.96 285.62,-129.96 285.62,-110.64 367.94,-110.64 367.94,-129.96"/>
<text xml:space="preserve" text-anchor="middle" x="326.78" y="-114.5" font-family="Sans-Serif" font-size="14.00">AnalyzeCells</text>
</a>
</g>
</g>
<!-- Contracts -->
<g id="node3" class="node">
<title>Contracts</title>
<g id="a_node3"><a xlink:href="../contracts.html" xlink:title="Contracts" target="_top">
<polygon fill="none" stroke="white" points="414.82,-185.28 352.75,-185.28 352.75,-165.96 414.82,-165.96 414.82,-185.28"/>
<text xml:space="preserve" text-anchor="middle" x="383.78" y="-169.82" font-family="Sans-Serif" font-size="14.00">Contracts</text>
</a>
</g>
</g>
<!-- Contracts&#45;&gt;AnalyzeCells -->
<g id="edge1" class="edge">
<title>Contracts&#45;&gt;AnalyzeCells</title>
<path fill="none" stroke="black" d="M374.12,-165.57C366.04,-158.02 354.32,-147.06 344.56,-137.93"/>
<polygon fill="black" stroke="black" points="347.11,-135.52 337.42,-131.25 342.33,-140.63 347.11,-135.52"/>
</g>
<!-- AnalyzeMetacells -->
<g id="node4" class="node">
<title>AnalyzeMetacells</title>
<g id="a_node4"><a xlink:href="../analyze_metacells.html" xlink:title="AnalyzeMetacells" target="_top">
<polygon fill="none" stroke="white" points="267.82,-129.96 157.75,-129.96 157.75,-110.64 267.82,-110.64 267.82,-129.96"/>
<text xml:space="preserve" text-anchor="middle" x="212.78" y="-114.5" font-family="Sans-Serif" font-size="14.00">AnalyzeMetacells</text>
</a>
</g>
</g>
<!-- Contracts&#45;&gt;AnalyzeMetacells -->
<g id="edge2" class="edge">
<title>Contracts&#45;&gt;AnalyzeMetacells</title>
<path fill="none" stroke="black" d="M354.78,-165.57C326.77,-156.84 284.13,-143.55 252.88,-133.8"/>
<polygon fill="black" stroke="black" points="253.97,-130.48 243.38,-130.84 251.88,-137.16 253.97,-130.48"/>
</g>
<!-- ComputeModules -->
<g id="node7" class="node">
<title>ComputeModules</title>
<g id="a_node7"><a xlink:href="../compute_modules.html" xlink:title="ComputeModules" target="_top">
<polygon fill="none" stroke="white" points="497.57,-129.96 386,-129.96 386,-110.64 497.57,-110.64 497.57,-129.96"/>
<text xml:space="preserve" text-anchor="middle" x="441.78" y="-114.5" font-family="Sans-Serif" font-size="14.00">ComputeModules</text>
</a>
</g>
</g>
<!-- Contracts&#45;&gt;ComputeModules -->
<g id="edge5" class="edge">
<title>Contracts&#45;&gt;ComputeModules</title>
<path fill="none" stroke="black" d="M393.62,-165.57C401.84,-158.02 413.77,-147.06 423.7,-137.93"/>
<polygon fill="black" stroke="black" points="425.98,-140.58 430.98,-131.24 421.25,-135.43 425.98,-140.58"/>
</g>
<!-- SharpenMetacells -->
<g id="node10" class="node">
<title>SharpenMetacells</title>
<g id="a_node10"><a xlink:href="../sharpen_metacells.html" xlink:title="SharpenMetacells" target="_top">
<polygon fill="none" stroke="white" points="628.32,-129.96 515.25,-129.96 515.25,-110.64 628.32,-110.64 628.32,-129.96"/>
<text xml:space="preserve" text-anchor="middle" x="571.78" y="-114.5" font-family="Sans-Serif" font-size="14.00">SharpenMetacells</text>
</a>
</g>
</g>
<!-- Contracts&#45;&gt;SharpenMetacells -->
<g id="edge9" class="edge">
<title>Contracts&#45;&gt;SharpenMetacells</title>
<path fill="none" stroke="black" d="M415.25,-165.7C446.38,-156.87 494.25,-143.29 528.85,-133.48"/>
<polygon fill="black" stroke="black" points="529.46,-136.94 538.13,-130.85 527.55,-130.21 529.46,-136.94"/>
</g>
<!-- AnalyzeModules -->
<g id="node6" class="node">
<title>AnalyzeModules</title>
<g id="a_node6"><a xlink:href="../analyze_modules.html" xlink:title="AnalyzeModules" target="_top">
<polygon fill="none" stroke="white" points="274.82,-74.64 170.75,-74.64 170.75,-55.32 274.82,-55.32 274.82,-74.64"/>
<text xml:space="preserve" text-anchor="middle" x="222.78" y="-59.18" font-family="Sans-Serif" font-size="14.00">AnalyzeModules</text>
</a>
</g>
</g>
<!-- AnalyzeMetacells&#45;&gt;AnalyzeModules -->
<g id="edge4" class="edge">
<title>AnalyzeMetacells&#45;&gt;AnalyzeModules</title>
<path fill="none" stroke="black" d="M214.44,-110.5C215.67,-103.9 217.42,-94.6 218.99,-86.21"/>
<polygon fill="black" stroke="black" points="222.42,-86.94 220.82,-76.46 215.54,-85.65 222.42,-86.94"/>
</g>
<!-- AnalyzeMetacells&#45;&gt;AnalyzeGenes -->
<g id="edge7" class="edge">
<title>AnalyzeMetacells&#45;&gt;AnalyzeGenes</title>
<path fill="none" stroke="black" d="M194.8,-110.25C178.43,-102.02 154,-89.73 135.02,-80.18"/>
<polygon fill="black" stroke="black" points="136.71,-77.12 126.21,-75.75 133.57,-83.37 136.71,-77.12"/>
</g>
<!-- Defaults -->
<g id="node5" class="node">
<title>Defaults</title>
<g id="a_node5"><a xlink:href="../defaults.html" xlink:title="Defaults" target="_top">
<polygon fill="none" stroke="white" points="239.69,-185.28 185.88,-185.28 185.88,-165.96 239.69,-165.96 239.69,-185.28"/>
<text xml:space="preserve" text-anchor="middle" x="212.78" y="-169.82" font-family="Sans-Serif" font-size="14.00">Defaults</text>
</a>
</g>
</g>
<!-- Defaults&#45;&gt;AnalyzeMetacells -->
<g id="edge3" class="edge">
<title>Defaults&#45;&gt;AnalyzeMetacells</title>
<path fill="none" stroke="black" d="M212.78,-165.82C212.78,-159.22 212.78,-149.92 212.78,-141.53"/>
<polygon fill="black" stroke="black" points="216.29,-141.81 212.79,-131.81 209.29,-141.81 216.29,-141.81"/>
</g>
<!-- ComputeBlocks -->
<g id="node9" class="node">
<title>ComputeBlocks</title>
<g id="a_node9"><a xlink:href="../compute_blocks.html" xlink:title="ComputeBlocks" target="_top">
<polygon fill="none" stroke="white" points="99.57,-19.32 0,-19.32 0,0 99.57,0 99.57,-19.32"/>
<text xml:space="preserve" text-anchor="middle" x="49.78" y="-3.86" font-family="Sans-Serif" font-size="14.00">ComputeBlocks</text>
</a>
</g>
</g>
<!-- AnalyzeGenes&#45;&gt;ComputeBlocks -->
<g id="edge8" class="edge">
<title>AnalyzeGenes&#45;&gt;ComputeBlocks</title>
<path fill="none" stroke="black" d="M97.12,-54.93C89.04,-47.38 77.32,-36.42 67.56,-27.29"/>
<polygon fill="black" stroke="black" points="70.11,-24.88 60.42,-20.61 65.33,-29.99 70.11,-24.88"/>
</g>
<!-- AnalyzeBlocks -->
<g id="node13" class="node">
<title>AnalyzeBlocks</title>
<g id="a_node13"><a xlink:href="../analyze_blocks.html" xlink:title="AnalyzeBlocks" target="_top">
<polygon fill="none" stroke="white" points="209.82,-19.32 117.75,-19.32 117.75,0 209.82,0 209.82,-19.32"/>
<text xml:space="preserve" text-anchor="middle" x="163.78" y="-3.86" font-family="Sans-Serif" font-size="14.00">AnalyzeBlocks</text>
</a>
</g>
</g>
<!-- AnalyzeGenes&#45;&gt;AnalyzeBlocks -->
<g id="edge10" class="edge">
<title>AnalyzeGenes&#45;&gt;AnalyzeBlocks</title>
<path fill="none" stroke="black" d="M116.45,-54.93C124.53,-47.38 136.25,-36.42 146.01,-27.29"/>
<polygon fill="black" stroke="black" points="148.24,-29.99 153.15,-20.61 143.46,-24.88 148.24,-29.99"/>
</g>
<!-- AnnDataFormat -->
<g id="node11" class="node">
<title>AnnDataFormat</title>
<g id="a_node11"><a xlink:href="../anndata_format.html" xlink:title="AnnDataFormat" target="_top">
<polygon fill="none" stroke="white" points="532.94,-185.28 432.62,-185.28 432.62,-165.96 532.94,-165.96 532.94,-185.28"/>
<text xml:space="preserve" text-anchor="middle" x="482.78" y="-169.82" font-family="Sans-Serif" font-size="14.00">AnnDataFormat</text>
</a>
</g>
</g>
<!-- Metacells -->
<g id="node12" class="node">
<title>Metacells</title>
<g id="a_node12"><a xlink:href="../Metacells.html" xlink:title="Metacells" target="_top">
<polygon fill="none" stroke="white" points="612.82,-185.28 550.75,-185.28 550.75,-165.96 612.82,-165.96 612.82,-185.28"/>
<text xml:space="preserve" text-anchor="middle" x="581.78" y="-169.82" font-family="Sans-Serif" font-size="14.00">Metacells</text>
</a>
</g>
</g>
</g>
</svg>
