<?xml version="1.0" encoding="UTF-8" standalone="no"?>
<!DOCTYPE svg PUBLIC "-//W3C//DTD SVG 1.1//EN"
 "http://www.w3.org/Graphics/SVG/1.1/DTD/svg11.dtd">
<!-- Generated by graphviz version 2.40.1 (0)
 -->
<!-- Title: %3 Pages: 1 -->
<svg width="613pt" height="192pt"
 viewBox="0.00 0.00 612.50 192.00" xmlns="http://www.w3.org/2000/svg" xmlns:xlink="http://www.w3.org/1999/xlink">
<g id="graph0" class="graph" transform="scale(1 1) rotate(0) translate(4 188)">
<title>%3</title>
<polygon fill="#ffffff" stroke="transparent" points="-4,4 -4,-188 608.5,-188 608.5,4 -4,4"/>
<!-- AnalyzeGenes -->
<g id="node1" class="node">
<title>AnalyzeGenes</title>
<g id="a_node1"><a xlink:href="../analyze_genes.html" xlink:title="AnalyzeGenes" target="_top">
<polygon fill="none" stroke="#ffffff" points="189.5,-74 96.5,-74 96.5,-55 189.5,-55 189.5,-74"/>
<text text-anchor="middle" x="143" y="-60.8" font-family="Sans-Serif" font-size="14.00" fill="#000000">AnalyzeGenes</text>
</a>
</g>
</g>
<!-- ComputeBlocks -->
<g id="node8" class="node">
<title>ComputeBlocks</title>
<g id="a_node8"><a xlink:href="../compute_blocks.html" xlink:title="ComputeBlocks" target="_top">
<polygon fill="none" stroke="#ffffff" points="210,-19 110,-19 110,0 210,0 210,-19"/>
<text text-anchor="middle" x="160" y="-5.8" font-family="Sans-Serif" font-size="14.00" fill="#000000">ComputeBlocks</text>
</a>
</g>
</g>
<!-- AnalyzeGenes&#45;&gt;ComputeBlocks -->
<g id="edge8" class="edge">
<title>AnalyzeGenes&#45;&gt;ComputeBlocks</title>
<path fill="none" stroke="#000000" d="M145.9612,-54.9197C148.1524,-47.8304 151.2135,-37.9269 153.9182,-29.1763"/>
<polygon fill="#000000" stroke="#000000" points="157.3491,-29.9285 156.9583,-19.3408 150.6612,-27.8613 157.3491,-29.9285"/>
</g>
<!-- AnalyzeBlocks -->
<g id="node14" class="node">
<title>AnalyzeBlocks</title>
<g id="a_node14"><a xlink:href="../analyze_blocks.html" xlink:title="AnalyzeBlocks" target="_top">
<polygon fill="none" stroke="#ffffff" points="92,-19 0,-19 0,0 92,0 92,-19"/>
<text text-anchor="middle" x="46" y="-5.8" font-family="Sans-Serif" font-size="14.00" fill="#000000">AnalyzeBlocks</text>
</a>
</g>
</g>
<!-- AnalyzeGenes&#45;&gt;AnalyzeBlocks -->
<g id="edge12" class="edge">
<title>AnalyzeGenes&#45;&gt;AnalyzeBlocks</title>
<path fill="none" stroke="#000000" d="M126.1039,-54.9197C111.1736,-46.4541 89.166,-33.9755 71.9945,-24.2391"/>
<polygon fill="#000000" stroke="#000000" points="73.4533,-21.0428 63.028,-19.155 70.0005,-27.1321 73.4533,-21.0428"/>
</g>
<!-- Gmara -->
<g id="node2" class="node">
<title>Gmara</title>
<g id="a_node2"><a xlink:href="../gmara.html" xlink:title="Gmara" target="_top">
<polygon fill="none" stroke="#ffffff" points="149.5,-129 102.5,-129 102.5,-110 149.5,-110 149.5,-129"/>
<text text-anchor="middle" x="126" y="-115.8" font-family="Sans-Serif" font-size="14.00" fill="#000000">Gmara</text>
</a>
</g>
</g>
<!-- Gmara&#45;&gt;AnalyzeGenes -->
<g id="edge1" class="edge">
<title>Gmara&#45;&gt;AnalyzeGenes</title>
<path fill="none" stroke="#000000" d="M128.9612,-109.9197C131.1524,-102.8304 134.2135,-92.9269 136.9182,-84.1763"/>
<polygon fill="#000000" stroke="#000000" points="140.3491,-84.9285 139.9583,-74.3408 133.6612,-82.8613 140.3491,-84.9285"/>
</g>
<!-- AnalyzeMetacells -->
<g id="node3" class="node">
<title>AnalyzeMetacells</title>
<g id="a_node3"><a xlink:href="../analyze_metacells.html" xlink:title="AnalyzeMetacells" target="_top">
<polygon fill="none" stroke="#ffffff" points="373,-129 263,-129 263,-110 373,-110 373,-129"/>
<text text-anchor="middle" x="318" y="-115.8" font-family="Sans-Serif" font-size="14.00" fill="#000000">AnalyzeMetacells</text>
</a>
</g>
</g>
<!-- AnalyzeMetacells&#45;&gt;AnalyzeGenes -->
<g id="edge2" class="edge">
<title>AnalyzeMetacells&#45;&gt;AnalyzeGenes</title>
<path fill="none" stroke="#000000" d="M287.5173,-109.9197C258.6223,-100.8384 215.0342,-87.1393 183.285,-77.161"/>
<polygon fill="#000000" stroke="#000000" points="184.0158,-73.7219 173.4264,-74.0626 181.917,-80.3999 184.0158,-73.7219"/>
</g>
<!-- AnalyzeModules -->
<g id="node10" class="node">
<title>AnalyzeModules</title>
<g id="a_node10"><a xlink:href="../analyze_modules.html" xlink:title="AnalyzeModules" target="_top">
<polygon fill="none" stroke="#ffffff" points="370,-74 266,-74 266,-55 370,-55 370,-74"/>
<text text-anchor="middle" x="318" y="-60.8" font-family="Sans-Serif" font-size="14.00" fill="#000000">AnalyzeModules</text>
</a>
</g>
</g>
<!-- AnalyzeMetacells&#45;&gt;AnalyzeModules -->
<g id="edge9" class="edge">
<title>AnalyzeMetacells&#45;&gt;AnalyzeModules</title>
<path fill="none" stroke="#000000" d="M318,-109.9197C318,-102.9083 318,-93.1442 318,-84.4652"/>
<polygon fill="#000000" stroke="#000000" points="321.5001,-84.3408 318,-74.3408 314.5001,-84.3409 321.5001,-84.3408"/>
</g>
<!-- Defaults -->
<g id="node4" class="node">
<title>Defaults</title>
<g id="a_node4"><a xlink:href="../defaults.html" xlink:title="Defaults" target="_top">
<polygon fill="none" stroke="#ffffff" points="298,-184 244,-184 244,-165 298,-165 298,-184"/>
<text text-anchor="middle" x="271" y="-170.8" font-family="Sans-Serif" font-size="14.00" fill="#000000">Defaults</text>
</a>
</g>
</g>
<!-- Defaults&#45;&gt;AnalyzeMetacells -->
<g id="edge3" class="edge">
<title>Defaults&#45;&gt;AnalyzeMetacells</title>
<path fill="none" stroke="#000000" d="M279.1868,-164.9197C285.7109,-157.2851 295.0241,-146.3867 302.8923,-137.1792"/>
<polygon fill="#000000" stroke="#000000" points="305.7548,-139.217 309.5906,-129.3408 300.4332,-134.6694 305.7548,-139.217"/>
</g>
<!-- ProjectCells -->
<g id="node7" class="node">
<title>ProjectCells</title>
<g id="a_node7"><a xlink:href="../project_cells.html" xlink:title="ProjectCells" target="_top">
<polygon fill="none" stroke="#ffffff" points="244.5,-129 167.5,-129 167.5,-110 244.5,-110 244.5,-129"/>
<text text-anchor="middle" x="206" y="-115.8" font-family="Sans-Serif" font-size="14.00" fill="#000000">ProjectCells</text>
</a>
</g>
</g>
<!-- Defaults&#45;&gt;ProjectCells -->
<g id="edge6" class="edge">
<title>Defaults&#45;&gt;ProjectCells</title>
<path fill="none" stroke="#000000" d="M259.6779,-164.9197C250.2868,-156.9735 236.7173,-145.4916 225.5715,-136.0605"/>
<polygon fill="#000000" stroke="#000000" points="227.5248,-133.1284 217.6301,-129.3408 223.0031,-138.4721 227.5248,-133.1284"/>
</g>
<!-- Contracts -->
<g id="node5" class="node">
<title>Contracts</title>
<g id="a_node5"><a xlink:href="../contracts.html" xlink:title="Contracts" target="_top">
<polygon fill="none" stroke="#ffffff" points="396,-184 334,-184 334,-165 396,-165 396,-184"/>
<text text-anchor="middle" x="365" y="-170.8" font-family="Sans-Serif" font-size="14.00" fill="#000000">Contracts</text>
</a>
</g>
</g>
<!-- Contracts&#45;&gt;AnalyzeMetacells -->
<g id="edge4" class="edge">
<title>Contracts&#45;&gt;AnalyzeMetacells</title>
<path fill="none" stroke="#000000" d="M356.8132,-164.9197C350.2891,-157.2851 340.9759,-146.3867 333.1077,-137.1792"/>
<polygon fill="#000000" stroke="#000000" points="335.5668,-134.6694 326.4094,-129.3408 330.2452,-139.217 335.5668,-134.6694"/>
</g>
<!-- AnalyzeCells -->
<g id="node6" class="node">
<title>AnalyzeCells</title>
<g id="a_node6"><a xlink:href="../analyze_cells.html" xlink:title="AnalyzeCells" target="_top">
<polygon fill="none" stroke="#ffffff" points="604.5,-129 521.5,-129 521.5,-110 604.5,-110 604.5,-129"/>
<text text-anchor="middle" x="563" y="-115.8" font-family="Sans-Serif" font-size="14.00" fill="#000000">AnalyzeCells</text>
</a>
</g>
</g>
<!-- Contracts&#45;&gt;AnalyzeCells -->
<g id="edge5" class="edge">
<title>Contracts&#45;&gt;AnalyzeCells</title>
<path fill="none" stroke="#000000" d="M396.3737,-165.7851C429.3655,-156.6207 481.5509,-142.1248 518.7252,-131.7986"/>
<polygon fill="#000000" stroke="#000000" points="520.0854,-135.0533 528.7838,-129.0045 518.2118,-128.3087 520.0854,-135.0533"/>
</g>
<!-- Contracts&#45;&gt;ProjectCells -->
<g id="edge7" class="edge">
<title>Contracts&#45;&gt;ProjectCells</title>
<path fill="none" stroke="#000000" d="M337.3043,-164.9197C311.2785,-155.9171 272.133,-142.3762 243.3535,-132.421"/>
<polygon fill="#000000" stroke="#000000" points="244.2394,-129.024 233.6446,-129.0626 241.951,-135.6394 244.2394,-129.024"/>
</g>
<!-- ComputeModules -->
<g id="node11" class="node">
<title>ComputeModules</title>
<g id="a_node11"><a xlink:href="../compute_modules.html" xlink:title="ComputeModules" target="_top">
<polygon fill="none" stroke="#ffffff" points="503,-129 391,-129 391,-110 503,-110 503,-129"/>
<text text-anchor="middle" x="447" y="-115.8" font-family="Sans-Serif" font-size="14.00" fill="#000000">ComputeModules</text>
</a>
</g>
</g>
<!-- Contracts&#45;&gt;ComputeModules -->
<g id="edge10" class="edge">
<title>Contracts&#45;&gt;ComputeModules</title>
<path fill="none" stroke="#000000" d="M379.2833,-164.9197C391.6711,-156.6109 409.8222,-144.4363 424.2147,-134.7828"/>
<polygon fill="#000000" stroke="#000000" points="426.25,-137.6321 432.6052,-129.155 422.3507,-131.8187 426.25,-137.6321"/>
</g>
<!-- AnnDataFormat -->
<g id="node9" class="node">
<title>AnnDataFormat</title>
<g id="a_node9"><a xlink:href="../anndata_format.html" xlink:title="AnnDataFormat" target="_top">
<polygon fill="none" stroke="#ffffff" points="515.5,-184 414.5,-184 414.5,-165 515.5,-165 515.5,-184"/>
<text text-anchor="middle" x="465" y="-170.8" font-family="Sans-Serif" font-size="14.00" fill="#000000">AnnDataFormat</text>
</a>
</g>
</g>
<!-- SharpenMetacells -->
<g id="node13" class="node">
<title>SharpenMetacells</title>
<g id="a_node13"><a xlink:href="../sharpen_metacells.html" xlink:title="SharpenMetacells" target="_top">
<polygon fill="none" stroke="#ffffff" points="374.5,-19 261.5,-19 261.5,0 374.5,0 374.5,-19"/>
<text text-anchor="middle" x="318" y="-5.8" font-family="Sans-Serif" font-size="14.00" fill="#000000">SharpenMetacells</text>
</a>
</g>
</g>
<!-- AnalyzeModules&#45;&gt;SharpenMetacells -->
<g id="edge11" class="edge">
<title>AnalyzeModules&#45;&gt;SharpenMetacells</title>
<path fill="none" stroke="#000000" d="M318,-54.9197C318,-47.9083 318,-38.1442 318,-29.4652"/>
<polygon fill="#000000" stroke="#000000" points="321.5001,-29.3408 318,-19.3408 314.5001,-29.3409 321.5001,-29.3408"/>
</g>
<!-- Metacells -->
<g id="node12" class="node">
<title>Metacells</title>
<g id="a_node12"><a xlink:href="../Metacells.html" xlink:title="Metacells" target="_top">
<polygon fill="none" stroke="#ffffff" points="596,-184 534,-184 534,-165 596,-165 596,-184"/>
<text text-anchor="middle" x="565" y="-170.8" font-family="Sans-Serif" font-size="14.00" fill="#000000">Metacells</text>
</a>
</g>
</g>
</g>
</svg>
