<?xml version="1.0" encoding="UTF-8" standalone="no"?>
<!DOCTYPE svg PUBLIC "-//W3C//DTD SVG 1.1//EN"
 "http://www.w3.org/Graphics/SVG/1.1/DTD/svg11.dtd">
<!-- Generated by graphviz version 14.1.1 (20251213.1925)
 -->
<!-- Pages: 1 -->
<svg width="770pt" height="193pt"
 viewBox="0.00 0.00 770.00 193.00" xmlns="http://www.w3.org/2000/svg" xmlns:xlink="http://www.w3.org/1999/xlink">
<g id="graph0" class="graph" transform="scale(1 1) rotate(0) translate(4 189.28)">
<polygon fill="white" stroke="none" points="-4,4 -4,-189.28 765.57,-189.28 765.57,4 -4,4"/>
<!-- Gmara -->
<g id="node1" class="node">
<title>Gmara</title>
<g id="a_node1"><a xlink:href="../gmara.html" xlink:title="Gmara" target="_top">
<polygon fill="none" stroke="white" points="47.07,-129.96 0,-129.96 0,-110.64 47.07,-110.64 47.07,-129.96"/>
<text xml:space="preserve" text-anchor="middle" x="23.54" y="-114.5" font-family="Sans-Serif" font-size="14.00">Gmara</text>
</a>
</g>
</g>
<!-- AnalyzeGenes -->
<g id="node8" class="node">
<title>AnalyzeGenes</title>
<g id="a_node8"><a xlink:href="../analyze_genes.html" xlink:title="AnalyzeGenes" target="_top">
<polygon fill="none" stroke="white" points="240.95,-74.64 148.13,-74.64 148.13,-55.32 240.95,-55.32 240.95,-74.64"/>
<text xml:space="preserve" text-anchor="middle" x="194.54" y="-59.18" font-family="Sans-Serif" font-size="14.00">AnalyzeGenes</text>
</a>
</g>
</g>
<!-- Gmara&#45;&gt;AnalyzeGenes -->
<g id="edge7" class="edge">
<title>Gmara&#45;&gt;AnalyzeGenes</title>
<path fill="none" stroke="black" d="M47.31,-111.89C75.01,-103.25 121.23,-88.84 154.5,-78.46"/>
<polygon fill="black" stroke="black" points="155.29,-81.88 163.79,-75.57 153.2,-75.2 155.29,-81.88"/>
</g>
<!-- AnalyzeCells -->
<g id="node2" class="node">
<title>AnalyzeCells</title>
<g id="a_node2"><a xlink:href="../analyze_cells.html" xlink:title="AnalyzeCells" target="_top">
<polygon fill="none" stroke="white" points="147.7,-129.96 65.38,-129.96 65.38,-110.64 147.7,-110.64 147.7,-129.96"/>
<text xml:space="preserve" text-anchor="middle" x="106.54" y="-114.5" font-family="Sans-Serif" font-size="14.00">AnalyzeCells</text>
</a>
</g>
</g>
<!-- Contracts -->
<g id="node3" class="node">
<title>Contracts</title>
<g id="a_node3"><a xlink:href="../contracts.html" xlink:title="Contracts" target="_top">
<polygon fill="none" stroke="white" points="382.57,-185.28 320.5,-185.28 320.5,-165.96 382.57,-165.96 382.57,-185.28"/>
<text xml:space="preserve" text-anchor="middle" x="351.54" y="-169.82" font-family="Sans-Serif" font-size="14.00">Contracts</text>
</a>
</g>
</g>
<!-- Contracts&#45;&gt;AnalyzeCells -->
<g id="edge1" class="edge">
<title>Contracts&#45;&gt;AnalyzeCells</title>
<path fill="none" stroke="black" d="M320.01,-167.76C279.36,-158.91 208.1,-143.4 159.18,-132.76"/>
<polygon fill="black" stroke="black" points="160.17,-129.39 149.65,-130.68 158.68,-136.23 160.17,-129.39"/>
</g>
<!-- AnalyzeMetacells -->
<g id="node4" class="node">
<title>AnalyzeMetacells</title>
<g id="a_node4"><a xlink:href="../analyze_metacells.html" xlink:title="AnalyzeMetacells" target="_top">
<polygon fill="none" stroke="white" points="536.57,-129.96 426.5,-129.96 426.5,-110.64 536.57,-110.64 536.57,-129.96"/>
<text xml:space="preserve" text-anchor="middle" x="481.54" y="-114.5" font-family="Sans-Serif" font-size="14.00">AnalyzeMetacells</text>
</a>
</g>
</g>
<!-- Contracts&#45;&gt;AnalyzeMetacells -->
<g id="edge3" class="edge">
<title>Contracts&#45;&gt;AnalyzeMetacells</title>
<path fill="none" stroke="black" d="M373.59,-165.57C394.22,-157.11 425.32,-144.36 448.84,-134.71"/>
<polygon fill="black" stroke="black" points="450.05,-138 457.97,-130.96 447.39,-131.52 450.05,-138"/>
</g>
<!-- ComputeModules -->
<g id="node7" class="node">
<title>ComputeModules</title>
<g id="a_node7"><a xlink:href="../compute_modules.html" xlink:title="ComputeModules" target="_top">
<polygon fill="none" stroke="white" points="277.32,-129.96 165.75,-129.96 165.75,-110.64 277.32,-110.64 277.32,-129.96"/>
<text xml:space="preserve" text-anchor="middle" x="221.54" y="-114.5" font-family="Sans-Serif" font-size="14.00">ComputeModules</text>
</a>
</g>
</g>
<!-- Contracts&#45;&gt;ComputeModules -->
<g id="edge5" class="edge">
<title>Contracts&#45;&gt;ComputeModules</title>
<path fill="none" stroke="black" d="M329.48,-165.57C308.85,-157.11 277.75,-144.36 254.23,-134.71"/>
<polygon fill="black" stroke="black" points="255.68,-131.52 245.1,-130.96 253.02,-138 255.68,-131.52"/>
</g>
<!-- SharpenMetacells -->
<g id="node10" class="node">
<title>SharpenMetacells</title>
<g id="a_node10"><a xlink:href="../sharpen_metacells.html" xlink:title="SharpenMetacells" target="_top">
<polygon fill="none" stroke="white" points="408.07,-129.96 295,-129.96 295,-110.64 408.07,-110.64 408.07,-129.96"/>
<text xml:space="preserve" text-anchor="middle" x="351.54" y="-114.5" font-family="Sans-Serif" font-size="14.00">SharpenMetacells</text>
</a>
</g>
</g>
<!-- Contracts&#45;&gt;SharpenMetacells -->
<g id="edge9" class="edge">
<title>Contracts&#45;&gt;SharpenMetacells</title>
<path fill="none" stroke="black" d="M351.54,-165.82C351.54,-159.22 351.54,-149.92 351.54,-141.53"/>
<polygon fill="black" stroke="black" points="355.04,-141.81 351.54,-131.81 348.04,-141.81 355.04,-141.81"/>
</g>
<!-- ProjectCells -->
<g id="node11" class="node">
<title>ProjectCells</title>
<g id="a_node11"><a xlink:href="../project_cells.html" xlink:title="ProjectCells" target="_top">
<polygon fill="none" stroke="white" points="630.7,-129.96 554.38,-129.96 554.38,-110.64 630.7,-110.64 630.7,-129.96"/>
<text xml:space="preserve" text-anchor="middle" x="592.54" y="-114.5" font-family="Sans-Serif" font-size="14.00">ProjectCells</text>
</a>
</g>
</g>
<!-- Contracts&#45;&gt;ProjectCells -->
<g id="edge11" class="edge">
<title>Contracts&#45;&gt;ProjectCells</title>
<path fill="none" stroke="black" d="M383.04,-167.65C423.79,-158.63 495.23,-142.83 543.2,-132.21"/>
<polygon fill="black" stroke="black" points="543.77,-135.67 552.78,-130.1 542.26,-128.84 543.77,-135.67"/>
</g>
<!-- AnalyzeModules -->
<g id="node6" class="node">
<title>AnalyzeModules</title>
<g id="a_node6"><a xlink:href="../analyze_modules.html" xlink:title="AnalyzeModules" target="_top">
<polygon fill="none" stroke="white" points="533.57,-74.64 429.5,-74.64 429.5,-55.32 533.57,-55.32 533.57,-74.64"/>
<text xml:space="preserve" text-anchor="middle" x="481.54" y="-59.18" font-family="Sans-Serif" font-size="14.00">AnalyzeModules</text>
</a>
</g>
</g>
<!-- AnalyzeMetacells&#45;&gt;AnalyzeModules -->
<g id="edge4" class="edge">
<title>AnalyzeMetacells&#45;&gt;AnalyzeModules</title>
<path fill="none" stroke="black" d="M481.54,-110.5C481.54,-103.9 481.54,-94.6 481.54,-86.21"/>
<polygon fill="black" stroke="black" points="485.04,-86.49 481.54,-76.49 478.04,-86.49 485.04,-86.49"/>
</g>
<!-- AnalyzeMetacells&#45;&gt;AnalyzeGenes -->
<g id="edge6" class="edge">
<title>AnalyzeMetacells&#45;&gt;AnalyzeGenes</title>
<path fill="none" stroke="black" d="M432.52,-110.19C382.71,-100.94 305.54,-86.6 252.67,-76.78"/>
<polygon fill="black" stroke="black" points="253.4,-73.36 242.93,-74.97 252.12,-80.24 253.4,-73.36"/>
</g>
<!-- Defaults -->
<g id="node5" class="node">
<title>Defaults</title>
<g id="a_node5"><a xlink:href="../defaults.html" xlink:title="Defaults" target="_top">
<polygon fill="none" stroke="white" points="563.45,-185.28 509.63,-185.28 509.63,-165.96 563.45,-165.96 563.45,-185.28"/>
<text xml:space="preserve" text-anchor="middle" x="536.54" y="-169.82" font-family="Sans-Serif" font-size="14.00">Defaults</text>
</a>
</g>
</g>
<!-- Defaults&#45;&gt;AnalyzeMetacells -->
<g id="edge2" class="edge">
<title>Defaults&#45;&gt;AnalyzeMetacells</title>
<path fill="none" stroke="black" d="M527.45,-165.82C519.7,-158.3 508.32,-147.27 498.84,-138.07"/>
<polygon fill="black" stroke="black" points="501.52,-135.8 491.9,-131.35 496.64,-140.82 501.52,-135.8"/>
</g>
<!-- Defaults&#45;&gt;ProjectCells -->
<g id="edge10" class="edge">
<title>Defaults&#45;&gt;ProjectCells</title>
<path fill="none" stroke="black" d="M546.03,-165.57C553.97,-158.02 565.48,-147.06 575.07,-137.93"/>
<polygon fill="black" stroke="black" points="577.25,-140.69 582.08,-131.26 572.42,-135.62 577.25,-140.69"/>
</g>
<!-- ComputeBlocks -->
<g id="node9" class="node">
<title>ComputeBlocks</title>
<g id="a_node9"><a xlink:href="../compute_blocks.html" xlink:title="ComputeBlocks" target="_top">
<polygon fill="none" stroke="white" points="187.32,-19.32 87.75,-19.32 87.75,0 187.32,0 187.32,-19.32"/>
<text xml:space="preserve" text-anchor="middle" x="137.54" y="-3.86" font-family="Sans-Serif" font-size="14.00">ComputeBlocks</text>
</a>
</g>
</g>
<!-- AnalyzeGenes&#45;&gt;ComputeBlocks -->
<g id="edge8" class="edge">
<title>AnalyzeGenes&#45;&gt;ComputeBlocks</title>
<path fill="none" stroke="black" d="M184.87,-54.93C176.79,-47.38 165.07,-36.42 155.31,-27.29"/>
<polygon fill="black" stroke="black" points="157.86,-24.88 148.17,-20.61 153.08,-29.99 157.86,-24.88"/>
</g>
<!-- AnalyzeBlocks -->
<g id="node14" class="node">
<title>AnalyzeBlocks</title>
<g id="a_node14"><a xlink:href="../analyze_blocks.html" xlink:title="AnalyzeBlocks" target="_top">
<polygon fill="none" stroke="white" points="297.57,-19.32 205.5,-19.32 205.5,0 297.57,0 297.57,-19.32"/>
<text xml:space="preserve" text-anchor="middle" x="251.54" y="-3.86" font-family="Sans-Serif" font-size="14.00">AnalyzeBlocks</text>
</a>
</g>
</g>
<!-- AnalyzeGenes&#45;&gt;AnalyzeBlocks -->
<g id="edge12" class="edge">
<title>AnalyzeGenes&#45;&gt;AnalyzeBlocks</title>
<path fill="none" stroke="black" d="M204.2,-54.93C212.28,-47.38 224,-36.42 233.76,-27.29"/>
<polygon fill="black" stroke="black" points="235.99,-29.99 240.9,-20.61 231.21,-24.88 235.99,-29.99"/>
</g>
<!-- AnnDataFormat -->
<g id="node12" class="node">
<title>AnnDataFormat</title>
<g id="a_node12"><a xlink:href="../anndata_format.html" xlink:title="AnnDataFormat" target="_top">
<polygon fill="none" stroke="white" points="681.7,-185.28 581.38,-185.28 581.38,-165.96 681.7,-165.96 681.7,-185.28"/>
<text xml:space="preserve" text-anchor="middle" x="631.54" y="-169.82" font-family="Sans-Serif" font-size="14.00">AnnDataFormat</text>
</a>
</g>
</g>
<!-- Metacells -->
<g id="node13" class="node">
<title>Metacells</title>
<g id="a_node13"><a xlink:href="../Metacells.html" xlink:title="Metacells" target="_top">
<polygon fill="none" stroke="white" points="761.57,-185.28 699.5,-185.28 699.5,-165.96 761.57,-165.96 761.57,-185.28"/>
<text xml:space="preserve" text-anchor="middle" x="730.54" y="-169.82" font-family="Sans-Serif" font-size="14.00">Metacells</text>
</a>
</g>
</g>
</g>
</svg>
