<?xml version="1.0" encoding="UTF-8" standalone="no"?>
<!DOCTYPE svg PUBLIC "-//W3C//DTD SVG 1.1//EN"
 "http://www.w3.org/Graphics/SVG/1.1/DTD/svg11.dtd">
<!-- Generated by graphviz version 2.40.1 (0)
 -->
<!-- Title: %3 Pages: 1 -->
<svg width="615pt" height="302pt"
 viewBox="0.00 0.00 614.50 302.00" xmlns="http://www.w3.org/2000/svg" xmlns:xlink="http://www.w3.org/1999/xlink">
<g id="graph0" class="graph" transform="scale(1 1) rotate(0) translate(4 298)">
<title>%3</title>
<polygon fill="#ffffff" stroke="transparent" points="-4,4 -4,-298 610.5,-298 610.5,4 -4,4"/>
<!-- AnalyzeGenes -->
<g id="node1" class="node">
<title>AnalyzeGenes</title>
<g id="a_node1"><a xlink:href="../analyze_genes.html" xlink:title="AnalyzeGenes" target="_top">
<polygon fill="none" stroke="#ffffff" points="203,-129 110,-129 110,-110 203,-110 203,-129"/>
<text text-anchor="middle" x="156.5" y="-115.8" font-family="Sans-Serif" font-size="14.00" fill="#000000">AnalyzeGenes</text>
</a>
</g>
</g>
<!-- Pipeline -->
<g id="node8" class="node">
<title>Pipeline</title>
<g id="a_node8"><a xlink:href="../pipeline.html" xlink:title="Pipeline" target="_top">
<polygon fill="none" stroke="#ffffff" points="53,-74 0,-74 0,-55 53,-55 53,-74"/>
<text text-anchor="middle" x="26.5" y="-60.8" font-family="Sans-Serif" font-size="14.00" fill="#000000">Pipeline</text>
</a>
</g>
</g>
<!-- AnalyzeGenes&#45;&gt;Pipeline -->
<g id="edge8" class="edge">
<title>AnalyzeGenes&#45;&gt;Pipeline</title>
<path fill="none" stroke="#000000" d="M133.8557,-109.9197C113.105,-101.1406 82.1535,-88.0457 58.8084,-78.1689"/>
<polygon fill="#000000" stroke="#000000" points="59.8944,-74.8281 49.321,-74.155 57.1669,-81.2749 59.8944,-74.8281"/>
</g>
<!-- ComputeBlocks -->
<g id="node9" class="node">
<title>ComputeBlocks</title>
<g id="a_node9"><a xlink:href="../compute_blocks.html" xlink:title="ComputeBlocks" target="_top">
<polygon fill="none" stroke="#ffffff" points="171.5,-74 71.5,-74 71.5,-55 171.5,-55 171.5,-74"/>
<text text-anchor="middle" x="121.5" y="-60.8" font-family="Sans-Serif" font-size="14.00" fill="#000000">ComputeBlocks</text>
</a>
</g>
</g>
<!-- AnalyzeGenes&#45;&gt;ComputeBlocks -->
<g id="edge9" class="edge">
<title>AnalyzeGenes&#45;&gt;ComputeBlocks</title>
<path fill="none" stroke="#000000" d="M150.4035,-109.9197C145.6938,-102.5188 139.0324,-92.0509 133.2914,-83.0294"/>
<polygon fill="#000000" stroke="#000000" points="136.084,-80.8984 127.7623,-74.3408 130.1783,-84.6565 136.084,-80.8984"/>
</g>
<!-- AnalyzeBlocks -->
<g id="node15" class="node">
<title>AnalyzeBlocks</title>
<g id="a_node15"><a xlink:href="../analyze_blocks.html" xlink:title="AnalyzeBlocks" target="_top">
<polygon fill="none" stroke="#ffffff" points="281.5,-74 189.5,-74 189.5,-55 281.5,-55 281.5,-74"/>
<text text-anchor="middle" x="235.5" y="-60.8" font-family="Sans-Serif" font-size="14.00" fill="#000000">AnalyzeBlocks</text>
</a>
</g>
</g>
<!-- AnalyzeGenes&#45;&gt;AnalyzeBlocks -->
<g id="edge14" class="edge">
<title>AnalyzeGenes&#45;&gt;AnalyzeBlocks</title>
<path fill="none" stroke="#000000" d="M170.2607,-109.9197C182.0827,-101.6893 199.3529,-89.6657 213.1549,-80.0567"/>
<polygon fill="#000000" stroke="#000000" points="215.4247,-82.7412 221.6319,-74.155 211.4251,-76.9963 215.4247,-82.7412"/>
</g>
<!-- AnalyzeMetacells -->
<g id="node2" class="node">
<title>AnalyzeMetacells</title>
<g id="a_node2"><a xlink:href="../analyze_metacells.html" xlink:title="AnalyzeMetacells" target="_top">
<polygon fill="none" stroke="#ffffff" points="318.5,-184 208.5,-184 208.5,-165 318.5,-165 318.5,-184"/>
<text text-anchor="middle" x="263.5" y="-170.8" font-family="Sans-Serif" font-size="14.00" fill="#000000">AnalyzeMetacells</text>
</a>
</g>
</g>
<!-- AnalyzeMetacells&#45;&gt;AnalyzeGenes -->
<g id="edge1" class="edge">
<title>AnalyzeMetacells&#45;&gt;AnalyzeGenes</title>
<path fill="none" stroke="#000000" d="M244.862,-164.9197C228.1638,-156.3365 203.4402,-143.6281 184.3882,-133.8351"/>
<polygon fill="#000000" stroke="#000000" points="185.7773,-130.6138 175.2834,-129.155 182.5772,-136.8395 185.7773,-130.6138"/>
</g>
<!-- AnalyzeModules -->
<g id="node11" class="node">
<title>AnalyzeModules</title>
<g id="a_node11"><a xlink:href="../analyze_modules.html" xlink:title="AnalyzeModules" target="_top">
<polygon fill="none" stroke="#ffffff" points="343.5,-129 239.5,-129 239.5,-110 343.5,-110 343.5,-129"/>
<text text-anchor="middle" x="291.5" y="-115.8" font-family="Sans-Serif" font-size="14.00" fill="#000000">AnalyzeModules</text>
</a>
</g>
</g>
<!-- AnalyzeMetacells&#45;&gt;AnalyzeModules -->
<g id="edge10" class="edge">
<title>AnalyzeMetacells&#45;&gt;AnalyzeModules</title>
<path fill="none" stroke="#000000" d="M268.3772,-164.9197C272.1053,-157.5967 277.3621,-147.2709 281.9216,-138.3147"/>
<polygon fill="#000000" stroke="#000000" points="285.0723,-139.8404 286.4901,-129.3408 278.8342,-136.6646 285.0723,-139.8404"/>
</g>
<!-- Gmara -->
<g id="node3" class="node">
<title>Gmara</title>
<g id="a_node3"><a xlink:href="../gmara.html" xlink:title="Gmara" target="_top">
<polygon fill="none" stroke="#ffffff" points="180,-184 133,-184 133,-165 180,-165 180,-184"/>
<text text-anchor="middle" x="156.5" y="-170.8" font-family="Sans-Serif" font-size="14.00" fill="#000000">Gmara</text>
</a>
</g>
</g>
<!-- Gmara&#45;&gt;AnalyzeGenes -->
<g id="edge2" class="edge">
<title>Gmara&#45;&gt;AnalyzeGenes</title>
<path fill="none" stroke="#000000" d="M156.5,-164.9197C156.5,-157.9083 156.5,-148.1442 156.5,-139.4652"/>
<polygon fill="#000000" stroke="#000000" points="160.0001,-139.3408 156.5,-129.3408 153.0001,-139.3409 160.0001,-139.3408"/>
</g>
<!-- AnalyzeCells -->
<g id="node4" class="node">
<title>AnalyzeCells</title>
<g id="a_node4"><a xlink:href="../analyze_cells.html" xlink:title="AnalyzeCells" target="_top">
<polygon fill="none" stroke="#ffffff" points="417,-239 334,-239 334,-220 417,-220 417,-239"/>
<text text-anchor="middle" x="375.5" y="-225.8" font-family="Sans-Serif" font-size="14.00" fill="#000000">AnalyzeCells</text>
</a>
</g>
</g>
<!-- AnalyzeCells&#45;&gt;AnalyzeMetacells -->
<g id="edge3" class="edge">
<title>AnalyzeCells&#45;&gt;AnalyzeMetacells</title>
<path fill="none" stroke="#000000" d="M355.9911,-219.9197C338.353,-211.2581 312.1603,-198.3957 292.1465,-188.5675"/>
<polygon fill="#000000" stroke="#000000" points="293.68,-185.4213 283.1611,-184.155 290.5945,-191.7046 293.68,-185.4213"/>
</g>
<!-- ProjectCells -->
<g id="node7" class="node">
<title>ProjectCells</title>
<g id="a_node7"><a xlink:href="../project_cells.html" xlink:title="ProjectCells" target="_top">
<polygon fill="none" stroke="#ffffff" points="414,-184 337,-184 337,-165 414,-165 414,-184"/>
<text text-anchor="middle" x="375.5" y="-170.8" font-family="Sans-Serif" font-size="14.00" fill="#000000">ProjectCells</text>
</a>
</g>
</g>
<!-- AnalyzeCells&#45;&gt;ProjectCells -->
<g id="edge6" class="edge">
<title>AnalyzeCells&#45;&gt;ProjectCells</title>
<path fill="none" stroke="#000000" d="M375.5,-219.9197C375.5,-212.9083 375.5,-203.1442 375.5,-194.4652"/>
<polygon fill="#000000" stroke="#000000" points="379.0001,-194.3408 375.5,-184.3408 372.0001,-194.3409 379.0001,-194.3408"/>
</g>
<!-- ComputeModules -->
<g id="node12" class="node">
<title>ComputeModules</title>
<g id="a_node12"><a xlink:href="../compute_modules.html" xlink:title="ComputeModules" target="_top">
<polygon fill="none" stroke="#ffffff" points="544.5,-184 432.5,-184 432.5,-165 544.5,-165 544.5,-184"/>
<text text-anchor="middle" x="488.5" y="-170.8" font-family="Sans-Serif" font-size="14.00" fill="#000000">ComputeModules</text>
</a>
</g>
</g>
<!-- AnalyzeCells&#45;&gt;ComputeModules -->
<g id="edge11" class="edge">
<title>AnalyzeCells&#45;&gt;ComputeModules</title>
<path fill="none" stroke="#000000" d="M395.1831,-219.9197C412.9787,-211.2581 439.4052,-198.3957 459.5977,-188.5675"/>
<polygon fill="#000000" stroke="#000000" points="461.2036,-191.6785 468.6633,-184.155 458.14,-185.3844 461.2036,-191.6785"/>
</g>
<!-- Defaults -->
<g id="node5" class="node">
<title>Defaults</title>
<g id="a_node5"><a xlink:href="../defaults.html" xlink:title="Defaults" target="_top">
<polygon fill="none" stroke="#ffffff" points="303.5,-239 249.5,-239 249.5,-220 303.5,-220 303.5,-239"/>
<text text-anchor="middle" x="276.5" y="-225.8" font-family="Sans-Serif" font-size="14.00" fill="#000000">Defaults</text>
</a>
</g>
</g>
<!-- Defaults&#45;&gt;AnalyzeMetacells -->
<g id="edge4" class="edge">
<title>Defaults&#45;&gt;AnalyzeMetacells</title>
<path fill="none" stroke="#000000" d="M274.2356,-219.9197C272.5599,-212.8304 270.2191,-202.9269 268.1508,-194.1763"/>
<polygon fill="#000000" stroke="#000000" points="271.5325,-193.2676 265.826,-184.3408 264.7202,-194.8778 271.5325,-193.2676"/>
</g>
<!-- Defaults&#45;&gt;ProjectCells -->
<g id="edge7" class="edge">
<title>Defaults&#45;&gt;ProjectCells</title>
<path fill="none" stroke="#000000" d="M293.7445,-219.9197C308.9826,-211.4541 331.444,-198.9755 348.9696,-189.2391"/>
<polygon fill="#000000" stroke="#000000" points="351.0791,-192.0711 358.121,-184.155 347.6796,-185.9519 351.0791,-192.0711"/>
</g>
<!-- Contracts -->
<g id="node6" class="node">
<title>Contracts</title>
<g id="a_node6"><a xlink:href="../contracts.html" xlink:title="Contracts" target="_top">
<polygon fill="none" stroke="#ffffff" points="406.5,-294 344.5,-294 344.5,-275 406.5,-275 406.5,-294"/>
<text text-anchor="middle" x="375.5" y="-280.8" font-family="Sans-Serif" font-size="14.00" fill="#000000">Contracts</text>
</a>
</g>
</g>
<!-- Contracts&#45;&gt;AnalyzeCells -->
<g id="edge5" class="edge">
<title>Contracts&#45;&gt;AnalyzeCells</title>
<path fill="none" stroke="#000000" d="M375.5,-274.9197C375.5,-267.9083 375.5,-258.1442 375.5,-249.4652"/>
<polygon fill="#000000" stroke="#000000" points="379.0001,-249.3408 375.5,-239.3408 372.0001,-249.3409 379.0001,-249.3408"/>
</g>
<!-- AnnDataFormat -->
<g id="node10" class="node">
<title>AnnDataFormat</title>
<g id="a_node10"><a xlink:href="../anndata_format.html" xlink:title="AnnDataFormat" target="_top">
<polygon fill="none" stroke="#ffffff" points="526,-294 425,-294 425,-275 526,-275 526,-294"/>
<text text-anchor="middle" x="475.5" y="-280.8" font-family="Sans-Serif" font-size="14.00" fill="#000000">AnnDataFormat</text>
</a>
</g>
</g>
<!-- SharpenMetacells -->
<g id="node14" class="node">
<title>SharpenMetacells</title>
<g id="a_node14"><a xlink:href="../sharpen_metacells.html" xlink:title="SharpenMetacells" target="_top">
<polygon fill="none" stroke="#ffffff" points="329,-19 216,-19 216,0 329,0 329,-19"/>
<text text-anchor="middle" x="272.5" y="-5.8" font-family="Sans-Serif" font-size="14.00" fill="#000000">SharpenMetacells</text>
</a>
</g>
</g>
<!-- AnalyzeModules&#45;&gt;SharpenMetacells -->
<g id="edge12" class="edge">
<title>AnalyzeModules&#45;&gt;SharpenMetacells</title>
<path fill="none" stroke="#000000" d="M292.4267,-109.7694C293.3944,-97.0418 294.297,-74.1132 290.5,-55 288.7077,-45.9778 285.2112,-36.4477 281.7729,-28.4534"/>
<polygon fill="#000000" stroke="#000000" points="284.928,-26.9367 277.5815,-19.3026 278.5638,-29.8518 284.928,-26.9367"/>
</g>
<!-- Metacells -->
<g id="node13" class="node">
<title>Metacells</title>
<g id="a_node13"><a xlink:href="../Metacells.html" xlink:title="Metacells" target="_top">
<polygon fill="none" stroke="#ffffff" points="606.5,-294 544.5,-294 544.5,-275 606.5,-275 606.5,-294"/>
<text text-anchor="middle" x="575.5" y="-280.8" font-family="Sans-Serif" font-size="14.00" fill="#000000">Metacells</text>
</a>
</g>
</g>
<!-- AnalyzeBlocks&#45;&gt;SharpenMetacells -->
<g id="edge13" class="edge">
<title>AnalyzeBlocks&#45;&gt;SharpenMetacells</title>
<path fill="none" stroke="#000000" d="M241.9449,-54.9197C246.9761,-47.4409 254.1143,-36.8301 260.2261,-27.745"/>
<polygon fill="#000000" stroke="#000000" points="263.202,-29.5917 265.8798,-19.3408 257.394,-25.6844 263.202,-29.5917"/>
</g>
</g>
</svg>
